<svg xmlns="http://www.w3.org/2000/svg" viewBox="0 0 512 512" width="512" height="512">
  <defs>
    <linearGradient id="bg" x1="0" y1="0" x2="1" y2="1">
      <stop offset="0%" stop-color="#1a73e8"/>
      <stop offset="100%" stop-color="#0d47a1"/>
    </linearGradient>
    <linearGradient id="arcGrad" x1="0" y1="1" x2="0" y2="0">
      <stop offset="0%" stop-color="#ffffff" stop-opacity="0.3"/>
      <stop offset="100%" stop-color="#ffffff" stop-opacity="0.95"/>
    </linearGradient>
  </defs>

  <!-- Background: rounded rect -->
  <rect x="32" y="32" width="448" height="448" rx="96" ry="96" fill="url(#bg)"/>

  <!-- Spectrum grid lines (subtle charts/analyzer reference) -->
  <g stroke="#ffffff" stroke-opacity="0.12" stroke-width="2">
    <line x1="160" y1="380" x2="160" y2="180"/>
    <line x1="210" y1="380" x2="210" y2="150"/>
    <line x1="260" y1="380" x2="260" y2="200"/>
    <line x1="310" y1="380" x2="310" y2="130"/>
    <line x1="360" y1="380" x2="360" y2="170"/>
    <line x1="145" y1="380" x2="375" y2="380"/>
  </g>

  <!-- Grid bar tops (small dots) -->
  <g fill="#ffffff" fill-opacity="0.25">
    <circle cx="160" cy="180" r="4"/>
    <circle cx="210" cy="150" r="4"/>
    <circle cx="260" cy="200" r="4"/>
    <circle cx="310" cy="130" r="4"/>
    <circle cx="360" cy="170" r="4"/>
  </g>

  <!-- Wi-Fi signal arcs -->
  <g fill="none" stroke="url(#arcGrad)" stroke-width="26" stroke-linecap="round">
    <!-- Innermost arc (strong signal) -->
    <path d="M 200 310 A 70 70 0 0 1 312 310" />
    <!-- Middle arc -->
    <path d="M 170 310 A 120 120 0 0 1 342 310" />
    <!-- Outer arc -->
    <path d="M 140 310 A 170 170 0 0 1 372 310" />
  </g>

  <!-- Center dot -->
  <circle cx="256" cy="310" r="18" fill="#ffffff" fill-opacity="0.9"/>
</svg>
