<svg xmlns="http://www.w3.org/2000/svg" viewBox="0 0 512 512" width="512" height="512">
  <defs>
    <linearGradient id="bg" x1="0" y1="0" x2="1" y2="1">
      <stop offset="0%" stop-color="#1a73e8"/>
      <stop offset="100%" stop-color="#0d47a1"/>
    </linearGradient>
    <linearGradient id="arcGrad" x1="0" y1="1" x2="0" y2="0">
      <stop offset="0%" stop-color="#ffffff" stop-opacity="0.2"/>
      <stop offset="100%" stop-color="#ffffff" stop-opacity="0.95"/>
    </linearGradient>
  </defs>

  <!-- Full-bleed background -->
  <rect x="0" y="0" width="512" height="512" fill="url(#bg)"/>

  <!-- Spectrum grid -->
  <g stroke="#ffffff" stroke-opacity="0.10" stroke-width="3">
    <line x1="140" y1="480" x2="140" y2="260"/>
    <line x1="200" y1="480" x2="200" y2="210"/>
    <line x1="260" y1="480" x2="260" y2="280"/>
    <line x1="320" y1="480" x2="320" y2="180"/>
    <line x1="380" y1="480" x2="380" y2="240"/>
    <line x1="120" y1="480" x2="400" y2="480"/>
  </g>
  <g fill="#ffffff" fill-opacity="0.3">
    <circle cx="140" cy="260" r="5"/>
    <circle cx="200" cy="210" r="5"/>
    <circle cx="260" cy="280" r="5"/>
    <circle cx="320" cy="180" r="5"/>
    <circle cx="380" cy="240" r="5"/>
  </g>

  <!-- Wi-Fi arcs — centered at (256, 380), 1.5x scale -->
  <g fill="none" stroke="url(#arcGrad)" stroke-width="26" stroke-linecap="round">
    <path d="M 210 314 A 80 80 0 0 1 302 314" />
    <path d="M 151 246 A 160 160 0 0 1 361 246" />
    <path d="M 92 186 A 240 240 0 0 1 420 186" />
  </g>

  <!-- Center dot -->
  <circle cx="256" cy="380" r="22" fill="#ffffff" fill-opacity="0.9"/>
</svg>
